HIERARCHY
ROOT hip
{
  OFFSET 0.0 0.0 0.0
  CHANNELS 6 Xposition Yposition Zposition Zrotation Yrotation Xrotation
  JOINT abdomen
  {
    OFFSET 0.0 20.6881 -0.73152
    CHANNELS 3 Zrotation Xrotation Yrotation
    JOINT chest
    {
      OFFSET 0.0 11.7043 -0.48768
      CHANNELS 3 Zrotation Xrotation Yrotation
      JOINT neck
      {
        OFFSET 0.0 22.1894 -2.19456
        CHANNELS 3 Zrotation Xrotation Yrotation
        JOINT head
        {
          OFFSET -0.24384 7.07133 1.2192
          CHANNELS 3 Zrotation Xrotation Yrotation
          JOINT leftEye
          {
            OFFSET 4.14528 8.04674 8.04672
            CHANNELS 3 Zrotation Xrotation Yrotation
            End Site
            {
              OFFSET 1.0 0.0 0.0
            }
          }
          JOINT rightEye
          {
            OFFSET -3.6576 8.04674 8.04672
            CHANNELS 3 Zrotation Xrotation Yrotation
            End Site
            {
              OFFSET 1.0 0.0 0.0
            }
          }
        }
      }
      JOINT rCollar
      {
        OFFSET -2.68224 19.2634 -4.8768
        CHANNELS 3 Zrotation Xrotation Yrotation
        JOINT rShldr
        {
          OFFSET -8.77824 -1.95073 1.46304
          CHANNELS 3 Zrotation Xrotation Yrotation
          JOINT rForeArm
          {
            OFFSET -28.1742 -1.7115 0.48768
            CHANNELS 3 Zrotation Xrotation Yrotation
            JOINT rHand
            {
              OFFSET -22.5879 0.773209 7.07136
              CHANNELS 3 Zrotation Xrotation Yrotation
              JOINT rThumb1
              {
                OFFSET -1.2192 -0.487915 3.41376
                CHANNELS 3 Zrotation Xrotation Yrotation
                JOINT rThumb2
                {
                  OFFSET -3.37035 -0.52449 3.41376
                  CHANNELS 3 Zrotation Xrotation Yrotation
                  End Site
                  {
                    OFFSET -1.78271 -1.18214 1.43049
                  }
                }
              }
              JOINT rIndex1
              {
                OFFSET -7.75947 0.938293 5.60832
                CHANNELS 3 Zrotation Xrotation Yrotation
                JOINT rIndex2
                {
                  OFFSET -2.54057 -0.884171 1.56538
                  CHANNELS 3 Zrotation Xrotation Yrotation
                  End Site
                  {
                    OFFSET -1.62519 -0.234802 1.16502
                  }
                }
              }
              JOINT rMid1
              {
                OFFSET -8.24714 1.18213 3.41376
                CHANNELS 3 Zrotation Xrotation Yrotation
                JOINT rMid2
                {
                  OFFSET -3.10165 -0.590103 1.0647
                  CHANNELS 3 Zrotation Xrotation Yrotation
                  End Site
                  {
                    OFFSET -2.48547 -0.328903 0.83742
                  }
                }
              }
              JOINT rRing1
              {
                OFFSET -8.82822 0.546677 1.51678
                CHANNELS 3 Zrotation Xrotation Yrotation
                JOINT rRing2
                {
                  OFFSET -2.60934 -0.819778 -0.0198488
                  CHANNELS 3 Zrotation Xrotation Yrotation
                  End Site
                  {
                    OFFSET -2.33842 -0.294052 0.168128
                  }
                }
              }
              JOINT rPinky1
              {
                OFFSET -8.27202 -0.0477905 -0.4584
                CHANNELS 3 Zrotation Xrotation Yrotation
                JOINT rPinky2
                {
                  OFFSET -1.82734 -0.647385 -0.700984
                  CHANNELS 3 Zrotation Xrotation Yrotation
                  End Site
                  {
                    OFFSET -1.69225 -0.51767 -0.607171
                  }
                }
              }
            }
          }
        }
      }
      JOINT lCollar
      {
        OFFSET 2.68224 19.2634 -4.8768
        CHANNELS 3 Zrotation Xrotation Yrotation
        JOINT lShldr
        {
          OFFSET 8.77824 -1.95073 1.46304
          CHANNELS 3 Zrotation Xrotation Yrotation
          JOINT lForeArm
          {
            OFFSET 28.1742 -1.7115 0.48768
            CHANNELS 3 Zrotation Xrotation Yrotation
            JOINT lHand
            {
              OFFSET 22.5879 0.773209 7.07136
              CHANNELS 3 Zrotation Xrotation Yrotation
              JOINT lThumb1
              {
                OFFSET 1.2192 -0.487915 3.41376
                CHANNELS 3 Zrotation Xrotation Yrotation
                JOINT lThumb2
                {
                  OFFSET 3.37035 -0.52449 3.41376
                  CHANNELS 3 Zrotation Xrotation Yrotation
                  End Site
                  {
                    OFFSET 1.78271 -1.18214 1.43049
                  }
                }
              }
              JOINT lIndex1
              {
                OFFSET 7.75947 0.938293 5.60832
                CHANNELS 3 Zrotation Xrotation Yrotation
                JOINT lIndex2
                {
                  OFFSET 2.54057 -0.884171 1.56538
                  CHANNELS 3 Zrotation Xrotation Yrotation
                  End Site
                  {
                    OFFSET 1.62519 -0.234802 1.16502
                  }
                }
              }
              JOINT lMid1
              {
                OFFSET 8.24714 1.18213 3.41376
                CHANNELS 3 Zrotation Xrotation Yrotation
                JOINT lMid2
                {
                  OFFSET 3.10165 -0.590103 1.0647
                  CHANNELS 3 Zrotation Xrotation Yrotation
                  End Site
                  {
                    OFFSET 2.48547 -0.328903 0.83742
                  }
                }
              }
              JOINT lRing1
              {
                OFFSET 8.82822 0.546677 1.51678
                CHANNELS 3 Zrotation Xrotation Yrotation
                JOINT lRing2
                {
                  OFFSET 2.60934 -0.819778 -0.0198488
                  CHANNELS 3 Zrotation Xrotation Yrotation
                  End Site
                  {
                    OFFSET 2.33842 -0.294052 0.168128
                  }
                }
              }
              JOINT lPinky1
              {
                OFFSET 8.27202 -0.0477905 -0.4584
                CHANNELS 3 Zrotation Xrotation Yrotation
                JOINT lPinky2
                {
                  OFFSET 1.82734 -0.647385 -0.700984
                  CHANNELS 3 Zrotation Xrotation Yrotation
                  End Site
                  {
                    OFFSET 1.69225 -0.51767 -0.607171
                  }
                }
              }
            }
          }
        }
      }
    }
  }
  JOINT rButtock
  {
    OFFSET -8.77824 4.35084 1.2192
    CHANNELS 3 Zrotation Xrotation Yrotation
    JOINT rThigh
    {
      OFFSET 0.0 -1.70687 -2.19456
      CHANNELS 3 Zrotation Xrotation Yrotation
      JOINT rShin
      {
        OFFSET 0.0 -36.8199 0.73152
        CHANNELS 3 Zrotation Xrotation Yrotation
        JOINT rFoot
        {
          OFFSET 0.73152 -45.1104 -5.12064
          CHANNELS 3 Zrotation Xrotation Yrotation
          End Site
          {
            OFFSET -1.1221 -3.69964 12.103
          }
        }
      }
    }
  }
  JOINT lButtock
  {
    OFFSET 8.77824 4.35084 1.2192
    CHANNELS 3 Zrotation Xrotation Yrotation
    JOINT lThigh
    {
      OFFSET 0.0 -1.70687 -2.19456
      CHANNELS 3 Zrotation Xrotation Yrotation
      JOINT lShin
      {
        OFFSET 0.0 -36.8199 0.73152
        CHANNELS 3 Zrotation Xrotation Yrotation
        JOINT lFoot
        {
          OFFSET -0.73152 -45.1104 -5.12064
          CHANNELS 3 Zrotation Xrotation Yrotation
          End Site
          {
            OFFSET 1.1221 -3.69964 12.103
          }
        }
      }
    }
  }
}
MOTION
Frames: 4
Frame Time: 0.00833333
-1.962583 85.6981 52.7358 -11.4858 13.206 0.3654 7.97906 8.17242 4.96144 -1.34061 -2.07638 1.5105 2.56498 -2.82754 -1.40214 -6.98358 -20.2145 -4.91696 -0.0 0.0 0.0 -0.0 0.0 0.0 1.03736e-13 -2.98707e-14 1.07788e-13 76.5475 33.8638 -1.65013 -15.2607 -8.01879 28.1254 -0.133774 -10.3833 -1.47557 -1.624e-09 9.59912e-10 2.12697e-10 -2.81043e-09 1.66697e-09 3.60116e-10 -1.624e-09 9.5991e-10 2.12697e-10 7.73091 5.47488 0.417314 -1.62401e-09 9.59909e-10 2.12702e-10 2.90554 0.965183 0.102902 -1.624e-09 9.59908e-10 2.12701e-10 10.2786 0.731801 0.0259123 -1.62401e-09 9.5991e-10 2.12709e-10 2.22167 -0.733487 -0.20892 1.03755e-13 -2.98642e-14 1.07639e-13 -86.2363 23.9731 17.9792 16.2693 -8.93986 -30.2428 0.0901437 -8.53912 1.20913 -1.19184e-09 -8.75389e-10 5.7935e-10 -2.06381e-09 -1.51748e-09 9.96587e-10 -1.19185e-09 -8.75387e-10 5.79354e-10 -7.73091 5.47488 -0.417314 -1.19184e-09 -8.75387e-10 5.79345e-10 -2.90554 0.965183 -0.102902 -1.19184e-09 -8.75387e-10 5.79344e-10 -10.2786 0.731801 -0.0259123 -1.19184e-09 -8.75387e-10 5.79337e-10 -2.22167 -0.733487 0.20892 -2.03217e-16 0.0 -3.88251e-19 16.0365 1.31648 1.30641 -0.0747021 19.6304 0.462243 -9.87551 -11.0261 -29.6893 2.03217e-16 0.0 3.88251e-19 11.62 -46.1844 -4.22866 0.281093 35.0827 -0.26693 2.32374 -4.24381 10.9291
-1.864933 85.5485 53.7776 -11.5401 13.3372 0.5277 7.77854 7.97792 5.16511 -1.46274 -1.94651 1.55889 2.43399 -2.66611 -1.51665 -6.77257 -20.3751 -5.06986 -0.0 0.0 0.0 -0.0 0.0 0.0 1.41252e-13 -2.2648e-14 9.49837e-14 76.356 33.9803 -1.08877 -15.0425 -7.82775 27.6748 -0.120625 -9.86253 -1.40004 -2.56548e-09 1.83396e-09 -1.45241e-10 -4.43642e-09 3.1806e-09 -2.64534e-10 -2.56547e-09 1.83396e-09 -1.45243e-10 7.73091 5.47488 0.417314 -2.56548e-09 1.83396e-09 -1.45236e-10 2.90554 0.965183 0.102902 -2.56547e-09 1.83396e-09 -1.45236e-10 10.2786 0.731801 0.0259123 -2.56548e-09 1.83396e-09 -1.45231e-10 2.22167 -0.733487 -0.20892 1.41289e-13 -2.26378e-14 9.48983e-14 -86.1484 23.7865 18.0099 16.1951 -8.86978 -30.085 0.0951251 -8.76801 1.24205 -2.32463e-09 -9.97026e-10 9.59401e-10 -4.02447e-09 -1.73004e-09 1.64877e-09 -2.32463e-09 -9.97023e-10 9.59404e-10 -7.73091 5.47488 -0.417314 -2.32463e-09 -9.97023e-10 9.59395e-10 -2.90554 0.965183 -0.102902 -2.32463e-09 -9.97023e-10 9.59393e-10 -10.2786 0.731801 -0.0259123 -2.32462e-09 -9.97022e-10 9.59383e-10 -2.22167 -0.733487 0.20892 -2.03217e-16 0.0 -3.88251e-19 16.1696 2.40588 1.2572 -0.069512 18.5947 0.442075 -9.9297 -11.0158 -29.8797 2.03217e-16 0.0 3.88251e-19 11.3726 -46.5546 -4.88294 0.257988 33.5996 -0.216171 2.42765 -4.71554 11.2052
-1.7599529999999999 85.3799 54.8273 -11.5949 13.4982 0.7167 7.5799 7.75798 5.35157 -1.57892 -1.84297 1.60225 2.31672 -2.51719 -1.62477 -6.59228 -20.5251 -5.21998 -0.0 0.0 0.0 -0.0 0.0 0.0 1.56229e-13 -2.06804e-14 6.99722e-14 76.1918 34.0713 -0.561841 -14.8352 -7.64855 27.2503 -0.108785 -9.36483 -1.32811 -2.89801e-09 2.19456e-09 -3.28434e-10 -5.01005e-09 3.80456e-09 -5.83576e-10 -2.89801e-09 2.19456e-09 -3.28437e-10 7.73091 5.47488 0.417314 -2.89802e-09 2.19456e-09 -3.28427e-10 2.90554 0.965183 0.102902 -2.89801e-09 2.19456e-09 -3.28428e-10 10.2786 0.731801 0.0259123 -2.89801e-09 2.19456e-09 -3.28424e-10 2.22167 -0.733487 -0.20892 1.5627e-13 -2.0667e-14 6.99225e-14 -86.0561 23.6516 18.0521 16.1329 -8.81118 -29.9534 0.0985718 -8.91912 1.26383 -2.84275e-09 -8.59981e-10 9.74652e-10 -4.92012e-09 -1.49306e-09 1.67238e-09 -2.84275e-09 -8.59979e-10 9.74656e-10 -7.73091 5.47488 -0.417314 -2.84275e-09 -8.59979e-10 9.74646e-10 -2.90554 0.965183 -0.102902 -2.84276e-09 -8.59979e-10 9.74644e-10 -10.2786 0.731801 -0.0259123 -2.84275e-09 -8.59977e-10 9.74633e-10 -2.22167 -0.733487 0.20892 -2.03217e-16 0.0 -3.88251e-19 16.2958 3.50375 1.19712 -0.0630023 17.5093 0.423716 -9.96027 -10.9904 -30.0534 2.03217e-16 0.0 3.88251e-19 11.1494 -46.9933 -5.40134 0.241198 32.3735 -0.177627 2.50377 -5.12584 11.3384
-1.638653 85.1902 55.885999999999996 -11.6188 13.6927 0.935 7.37901 7.50465 5.51406 -1.68567 -1.77059 1.63855 2.22374 -2.37439 -1.72264 -6.45953 -20.6682 -5.36616 -0.0 0.0 0.0 -0.0 0.0 0.0 1.3078e-13 -2.68447e-14 2.93103e-14 76.0586 34.1358 -0.0732511 -14.639 -7.48162 26.8495 -0.097778 -8.88481 -1.25889 -2.22026e-09 1.68465e-09 -1.91903e-10 -3.83769e-09 2.92017e-09 -3.44158e-10 -2.22026e-09 1.68465e-09 -1.91909e-10 7.73091 5.47488 0.417314 -2.22026e-09 1.68465e-09 -1.91896e-10 2.90554 0.965183 0.102902 -2.22025e-09 1.68465e-09 -1.91897e-10 10.2786 0.731801 0.0259123 -2.22026e-09 1.68465e-09 -1.91893e-10 2.22167 -0.733487 -0.20892 1.30801e-13 -2.68274e-14 2.92532e-14 -85.9637 23.5897 18.1153 16.0814 -8.76291 -29.8449 0.100057 -8.98088 1.27274 -2.35659e-09 -2.75671e-10 3.55538e-10 -4.07552e-09 -4.78678e-10 6.02501e-10 -2.35659e-09 -2.75667e-10 3.55543e-10 -7.73091 5.47488 -0.417314 -2.35659e-09 -2.75668e-10 3.55533e-10 -2.90554 0.965183 -0.102902 -2.3566e-09 -2.75668e-10 3.55532e-10 -10.2786 0.731801 -0.0259123 -2.35659e-09 -2.75667e-10 3.55521e-10 -2.22167 -0.733487 0.20892 -2.03217e-16 0.0 -3.88251e-19 16.4122 4.60099 1.12919 -0.0544204 16.3744 0.406748 -9.96697 -10.9454 -30.2151 2.03217e-16 0.0 3.88251e-19 10.9684 -47.5211 -5.72571 0.229204 31.4097 -0.15078 2.54343 -5.48248 11.2925
